<?xml version="1.0" encoding="utf-8"?>
<!-- Generator: Adobe Illustrator 23.0.3, SVG Export Plug-In . SVG Version: 6.00 Build 0)  -->
<svg version="1.1" id="Layer_1" xmlns="http://www.w3.org/2000/svg" xmlns:xlink="http://www.w3.org/1999/xlink" x="0px" y="0px"
	 viewBox="0 0 30.5 27.5" style="enable-background:new 0 0 30.5 27.5;" xml:space="preserve">
<style type="text/css">
	.st0{fill:none;stroke:#DC382D;stroke-miterlimit:10;}
	.st1{fill:none;stroke:#DC382D;stroke-width:1.25;stroke-miterlimit:10;}
	.st2{fill:none;stroke:#DC382D;stroke-width:1.75;stroke-miterlimit:10;}
	.st3{fill:#504F4E;}
	.st4{fill:#DC382D;}
	.st5{fill:none;stroke:#DC382D;stroke-width:1.5;stroke-miterlimit:10;}
	.st6{fill:none;stroke:#DC382D;stroke-width:1.25;stroke-linejoin:round;stroke-miterlimit:10;}
</style>
<g>
	<path class="st4" d="M1,10v2.6L0,14l1,1.4V18c0,1.2,1.4,2.4,2.7,2.4v-1.5c-0.5,0-1.2-0.6-1.2-0.9v-3.1L1.9,14l0.7-0.9V10
		c0-0.7,0.7-0.9,1.2-0.9V7.6C2.1,7.6,1,8.5,1,10z"/>
	<path class="st4" d="M12,18c0,0.3-0.6,0.9-1.2,0.9v1.5c1.4,0,2.8-1.2,2.8-2.4v-2.6l1.1-1.4l-1.1-1.4V10c0-1.4-1.1-2.4-2.6-2.4v1.5
		c0.8,0,1.1,0.3,1.1,0.9v3.1l0.7,0.9L12,14.9V18z"/>
	<path class="st4" d="M30.5,7.7c0,0,0-0.1,0-0.1c0-0.1-0.1-0.3-0.2-0.4l-6.8-7l0,0c0,0,0,0,0,0l0,0c0,0,0,0,0,0
		c-0.1-0.1-0.1-0.1-0.2-0.1c0,0,0,0-0.1,0c-0.1,0-0.1,0-0.2,0c0,0,0,0,0,0H7.8C7.4,0,7,0.3,7,0.8v4h1.5V1.5h13.7v6.2
		c0,0.4,0.3,0.8,0.8,0.8H29V26H8.5v-3.2H7v4c0,0.4,0.3,0.8,0.8,0.8h22c0.4,0,0.8-0.3,0.8-0.8L30.5,7.7C30.5,7.7,30.5,7.7,30.5,7.7z
		 M23.7,7V2.6L28,7H23.7z"/>
	<path class="st4" d="M7.3,12.2c0.6,0,1-0.4,1-1c0-0.6-0.4-1-1-1s-1,0.4-1,1C6.3,11.7,6.7,12.2,7.3,12.2z"/>
	<path class="st4" d="M8.3,15.9c0-0.6-0.4-1.1-1-1.1s-1,0.4-1,1c0,0.6,0.4,1,1,1c0.1,0,0.1,0,0.1,0c0,0,0.1,0.7-0.8,1.5
		c0,0,0,0.1,0,0.1s0.2,0.2,0.3,0.2c0,0,0,0,0.1,0C7.7,18.1,8.3,17.3,8.3,15.9z"/>
</g>
</svg>
