<?xml version="1.0" encoding="utf-8"?>
<!-- Generator: Adobe Illustrator 23.0.3, SVG Export Plug-In . SVG Version: 6.00 Build 0)  -->
<svg version="1.1" id="Layer_1" xmlns="http://www.w3.org/2000/svg" xmlns:xlink="http://www.w3.org/1999/xlink" x="0px" y="0px"
	 viewBox="0 0 31.4 25.8" style="enable-background:new 0 0 31.4 25.8;" xml:space="preserve">
<style type="text/css">
	.st0{fill:none;stroke:#DC382D;stroke-miterlimit:10;}
	.st1{fill:none;stroke:#DC382D;stroke-width:1.25;stroke-miterlimit:10;}
	.st2{fill:none;stroke:#DC382D;stroke-width:1.75;stroke-miterlimit:10;}
	.st3{fill:#504F4E;}
	.st4{fill:#DC382D;}
	.st5{fill:none;stroke:#DC382D;stroke-width:1.5;stroke-miterlimit:10;}
	.st6{fill:none;stroke:#DC382D;stroke-width:1.25;stroke-linejoin:round;stroke-miterlimit:10;}
</style>
<g>
	<path class="st4" d="M8.7,10.5c1.2,0.5,2.6,0.8,4,0.8c0.2,0,0.4,0,0.6,0c1.7-0.1,3.2-0.6,4.3-1.3c1-0.7,1.6-1.6,1.5-2.6
		c-0.1-1.1-1-2.1-2.4-2.7c-1.3-0.6-3-0.9-4.7-0.8C10.4,4,8.8,4.5,7.8,5.2C6.6,6,6.1,7,6.3,8C6.5,9,7.3,9.9,8.7,10.5z M8.6,6.5
		c0.9-0.6,2.1-1,3.5-1c0.2,0,0.4,0,0.6,0c1.2,0,2.4,0.2,3.4,0.7c0.9,0.4,1.5,1,1.6,1.5c0,0.4-0.3,0.8-0.8,1.2c-0.9,0.6-2.1,1-3.5,1
		c-1.4,0.1-2.9-0.2-4-0.7C8.4,8.8,7.9,8.2,7.8,7.7C7.7,7.2,8.2,6.7,8.6,6.5z"/>
	<path class="st4" d="M5,13.7c2.6,1.2,5.8,1.7,9,1.5c2.2-0.1,4.2-0.6,6-1.3l5.9,2.7c0.6,0.3,1.3,0.4,2,0.4c0.1,0,0.2,0,0.3,0
		c0.8,0,1.6-0.3,2.2-0.7c0.8-0.5,1.2-1.4,1-2.2c-0.1-0.8-0.7-1.4-1.5-1.8l-5-2.3c0.6-1.1,0.8-2.2,0.6-3.4c-0.4-2.1-2.1-3.9-4.9-5.1
		c-2.6-1.2-5.7-1.7-9-1.5C8.2,0.2,5.2,1.1,3.1,2.6c-2.4,1.6-3.4,3.7-3,5.9C0.5,10.6,2.2,12.4,5,13.7z M4,3.8
		c1.9-1.3,4.6-2.1,7.6-2.3c3-0.2,5.9,0.3,8.3,1.4c2.3,1,3.7,2.5,4,4.1c0.2,1-0.1,2-0.8,3c-0.1,0.2-0.2,0.4-0.1,0.6
		c0.1,0.2,0.2,0.4,0.4,0.5l5.8,2.7c0,0,0,0,0,0c0.4,0.2,0.6,0.4,0.7,0.7c0.1,0.3-0.2,0.6-0.4,0.7c-0.4,0.2-0.9,0.4-1.4,0.4
		c-0.6,0-1.1-0.1-1.6-0.3l-6.2-2.8c-0.1,0-0.2-0.1-0.3-0.1c-0.1,0-0.2,0-0.3,0.1c-1.7,0.7-3.7,1.2-5.8,1.3c-3,0.2-5.9-0.3-8.3-1.4
		c-2.3-1-3.7-2.5-4-4.1C1.3,6.6,2.1,5.1,4,3.8z"/>
	<path class="st4" d="M26,19.6c-2.9-1.3-5.7-2.5-5.7-2.5c-0.2-0.1-0.3-0.1-0.5,0c-2.1,0.9-3.8,1.4-6.5,1.6
		c-8.7,0.5-12.5-3.8-12.6-4.9c-1,1.1,2.1,6.9,12.6,6.3c2.7-0.1,4.4-0.7,6.6-1.6c0,0,2,0.9,5.5,2.4c4.5,2,7-1.1,5.5-2.4
		C31,19.2,29.4,21,26,19.6z"/>
	<path class="st4" d="M26,23.9c-2.9-1.3-5.7-2.5-5.7-2.5c-0.2-0.1-0.3-0.1-0.5,0c-2.1,0.9-3.8,1.4-6.5,1.6C4.6,23.4,0.8,19.2,0.7,18
		c-1,1.1,2.1,6.9,12.6,6.3c2.7-0.1,4.4-0.7,6.6-1.6c0,0,2,0.9,5.5,2.4c4.5,2,7-1.1,5.5-2.4C31,23.5,29.4,25.4,26,23.9z"/>
</g>
</svg>
