<svg xmlns="http://www.w3.org/2000/svg" width="1600" height="1000" viewBox="0 0 1600 1000">
<rect width="100%" height="100%" fill="white"/>
<rect x="708.0" y="150" width="24.0" height="725" fill="#e7f0fe"/>
<line x1="420.0" y1="150" x2="420.0" y2="875" stroke="#d1d5db" stroke-width="1"/>
<text x="420.0" y="913" text-anchor="middle" font-family="DejaVu Sans,sans-serif" font-size="15" fill="#4b5563">-125%</text>
<line x1="570.0" y1="150" x2="570.0" y2="875" stroke="#d1d5db" stroke-width="1"/>
<text x="570.0" y="913" text-anchor="middle" font-family="DejaVu Sans,sans-serif" font-size="15" fill="#4b5563">-62%</text>
<line x1="720.0" y1="150" x2="720.0" y2="875" stroke="#374151" stroke-width="3"/>
<text x="720.0" y="913" text-anchor="middle" font-family="DejaVu Sans,sans-serif" font-size="15" fill="#4b5563">+0%</text>
<line x1="870.0" y1="150" x2="870.0" y2="875" stroke="#d1d5db" stroke-width="1"/>
<text x="870.0" y="913" text-anchor="middle" font-family="DejaVu Sans,sans-serif" font-size="15" fill="#4b5563">+62%</text>
<line x1="1020.0" y1="150" x2="1020.0" y2="875" stroke="#d1d5db" stroke-width="1"/>
<text x="1020.0" y="913" text-anchor="middle" font-family="DejaVu Sans,sans-serif" font-size="15" fill="#4b5563">+125%</text>
<text x="24" y="47" font-family="DejaVu Sans,sans-serif" font-size="27" font-weight="bold" fill="#111827">MOD-17473 — Memory residual after 10 seconds</text>
<text x="24" y="83" font-family="DejaVu Sans,sans-serif" font-size="18" fill="#4b5563">10s cooldown value minus pre-load value · complete RESP3 replies · baseline 20ba4ed7c2 → PR d22ed77e59</text>
<text x="24" y="113" font-family="DejaVu Sans,sans-serif" font-size="15" font-weight="bold" fill="#1f4f7a">Effect axis: positive = favorable · paired-bootstrap 95% CIs · N=5 SCREENING</text>
<text x="24" y="214.5" font-family="DejaVu Sans,sans-serif" font-size="18" fill="#111827">RESP3 · workers=0</text>
<text x="24" y="238.5" font-family="DejaVu Sans,sans-serif" font-size="15" fill="#4b5563">Redis used_memory</text>
<line x1="718.8" y1="217.5" x2="720.6" y2="217.5" stroke="#2864a0" stroke-width="4"/>
<line x1="718.8" y1="210.5" x2="718.8" y2="224.5" stroke="#2864a0" stroke-width="3"/>
<line x1="720.6" y1="210.5" x2="720.6" y2="224.5" stroke="#2864a0" stroke-width="3"/>
<circle cx="719.7" cy="217.5" r="7" fill="#2864a0"/>
<text x="1040" y="215.5" font-family="DejaVu Sans,sans-serif" font-size="15" fill="#111827">Δ(PR−base) +0.00 MiB · effect -0.1%</text>
<text x="1040" y="235.5" font-family="DejaVu Sans,sans-serif" font-size="15" fill="#4b5563">95% CI [-0.5, +0.2] · N=5 SCREENING · equivalent</text>
<text x="24" y="289.5" font-family="DejaVu Sans,sans-serif" font-size="18" fill="#111827">RESP3 · workers=0</text>
<text x="24" y="313.5" font-family="DejaVu Sans,sans-serif" font-size="15" fill="#4b5563">Process RSS</text>
<line x1="720.1" y1="292.5" x2="720.8" y2="292.5" stroke="#2864a0" stroke-width="4"/>
<line x1="720.1" y1="285.5" x2="720.1" y2="299.5" stroke="#2864a0" stroke-width="3"/>
<line x1="720.8" y1="285.5" x2="720.8" y2="299.5" stroke="#2864a0" stroke-width="3"/>
<circle cx="720.4" cy="292.5" r="7" fill="#2864a0"/>
<text x="1040" y="290.5" font-family="DejaVu Sans,sans-serif" font-size="15" fill="#111827">Δ(PR−base) -0.25 MiB · effect +0.2%</text>
<text x="1040" y="310.5" font-family="DejaVu Sans,sans-serif" font-size="15" fill="#4b5563">95% CI [+0.0, +0.3] · N=5 SCREENING · equivalent</text>
<text x="24" y="364.5" font-family="DejaVu Sans,sans-serif" font-size="18" fill="#111827">RESP3 · workers=0</text>
<text x="24" y="388.5" font-family="DejaVu Sans,sans-serif" font-size="15" fill="#4b5563">Process PSS</text>
<line x1="720.1" y1="367.5" x2="720.8" y2="367.5" stroke="#2864a0" stroke-width="4"/>
<line x1="720.1" y1="360.5" x2="720.1" y2="374.5" stroke="#2864a0" stroke-width="3"/>
<line x1="720.8" y1="360.5" x2="720.8" y2="374.5" stroke="#2864a0" stroke-width="3"/>
<circle cx="720.4" cy="367.5" r="7" fill="#2864a0"/>
<text x="1040" y="365.5" font-family="DejaVu Sans,sans-serif" font-size="15" fill="#111827">Δ(PR−base) -0.14 MiB · effect +0.2%</text>
<text x="1040" y="385.5" font-family="DejaVu Sans,sans-serif" font-size="15" fill="#4b5563">95% CI [+0.0, +0.3] · N=5 SCREENING · equivalent</text>
<text x="24" y="439.5" font-family="DejaVu Sans,sans-serif" font-size="18" fill="#111827">RESP3 · workers=1</text>
<text x="24" y="463.5" font-family="DejaVu Sans,sans-serif" font-size="15" fill="#4b5563">Redis used_memory</text>
<line x1="722.9" y1="442.5" x2="732.0" y2="442.5" stroke="#2864a0" stroke-width="4"/>
<line x1="722.9" y1="435.5" x2="722.9" y2="449.5" stroke="#2864a0" stroke-width="3"/>
<line x1="732.0" y1="435.5" x2="732.0" y2="449.5" stroke="#2864a0" stroke-width="3"/>
<circle cx="727.3" cy="442.5" r="7" fill="#2864a0"/>
<text x="1040" y="440.5" font-family="DejaVu Sans,sans-serif" font-size="15" fill="#111827">Δ(PR−base) -0.00 MiB · effect +3.1%</text>
<text x="1040" y="460.5" font-family="DejaVu Sans,sans-serif" font-size="15" fill="#4b5563">95% CI [+1.2, +5.0] · N=5 SCREENING · equivalent</text>
<text x="24" y="514.5" font-family="DejaVu Sans,sans-serif" font-size="18" fill="#111827">RESP3 · workers=1</text>
<text x="24" y="538.5" font-family="DejaVu Sans,sans-serif" font-size="15" fill="#4b5563">Process RSS</text>
<line x1="420.0" y1="517.5" x2="691.4" y2="517.5" stroke="#c2413b" stroke-width="4"/>
<line x1="420.0" y1="510.5" x2="420.0" y2="524.5" stroke="#c2413b" stroke-width="3"/>
<line x1="691.4" y1="510.5" x2="691.4" y2="524.5" stroke="#c2413b" stroke-width="3"/>
<polygon points="420,517.5 432,509.5 432,525.5" fill="#c2413b"/>
<circle cx="492.7" cy="517.5" r="7" fill="#c2413b"/>
<text x="1040" y="515.5" font-family="DejaVu Sans,sans-serif" font-size="15" fill="#111827">Δ(PR−base) +7.90 MiB · effect -94.7%</text>
<text x="1040" y="535.5" font-family="DejaVu Sans,sans-serif" font-size="15" fill="#4b5563">95% CI [-283.9, -11.9] · N=5 SCREENING · regression</text>
<text x="24" y="589.5" font-family="DejaVu Sans,sans-serif" font-size="18" fill="#111827">RESP3 · workers=1</text>
<text x="24" y="613.5" font-family="DejaVu Sans,sans-serif" font-size="15" fill="#4b5563">Process PSS</text>
<line x1="420.0" y1="592.5" x2="690.7" y2="592.5" stroke="#c2413b" stroke-width="4"/>
<line x1="420.0" y1="585.5" x2="420.0" y2="599.5" stroke="#c2413b" stroke-width="3"/>
<line x1="690.7" y1="585.5" x2="690.7" y2="599.5" stroke="#c2413b" stroke-width="3"/>
<polygon points="420,592.5 432,584.5 432,600.5" fill="#c2413b"/>
<circle cx="489.3" cy="592.5" r="7" fill="#c2413b"/>
<text x="1040" y="590.5" font-family="DejaVu Sans,sans-serif" font-size="15" fill="#111827">Δ(PR−base) +7.99 MiB · effect -96.1%</text>
<text x="1040" y="610.5" font-family="DejaVu Sans,sans-serif" font-size="15" fill="#4b5563">95% CI [-289.9, -12.2] · N=5 SCREENING · regression</text>
<text x="24" y="664.5" font-family="DejaVu Sans,sans-serif" font-size="18" fill="#111827">RESP3 · workers=16</text>
<text x="24" y="688.5" font-family="DejaVu Sans,sans-serif" font-size="15" fill="#4b5563">Redis used_memory</text>
<line x1="912.3" y1="667.5" x2="912.9" y2="667.5" stroke="#197a4b" stroke-width="4"/>
<line x1="912.3" y1="660.5" x2="912.3" y2="674.5" stroke="#197a4b" stroke-width="3"/>
<line x1="912.9" y1="660.5" x2="912.9" y2="674.5" stroke="#197a4b" stroke-width="3"/>
<circle cx="912.6" cy="667.5" r="7" fill="#197a4b"/>
<text x="1040" y="657.5" font-family="DejaVu Sans,sans-serif" font-size="15" fill="#111827">Δ(PR−base) -0.37 MiB · effect +80.3%</text>
<text x="1040" y="677.5" font-family="DejaVu Sans,sans-serif" font-size="15" fill="#4b5563">95% CI [+80.1, +80.4] · N=5 SCREENING · severe-improvement</text>
<text x="1040" y="697.5" font-family="DejaVu Sans,sans-serif" font-size="15" font-weight="bold" fill="#8a4b08">ORDER-CONFOUNDED (5/0 AB)</text>
<text x="24" y="739.5" font-family="DejaVu Sans,sans-serif" font-size="18" fill="#111827">RESP3 · workers=16</text>
<text x="24" y="763.5" font-family="DejaVu Sans,sans-serif" font-size="15" fill="#4b5563">Process RSS</text>
<line x1="669.7" y1="742.5" x2="731.7" y2="742.5" stroke="#9a6b16" stroke-width="4"/>
<line x1="669.7" y1="735.5" x2="669.7" y2="749.5" stroke="#9a6b16" stroke-width="3"/>
<line x1="731.7" y1="735.5" x2="731.7" y2="749.5" stroke="#9a6b16" stroke-width="3"/>
<circle cx="698.9" cy="742.5" r="7" fill="#9a6b16"/>
<text x="1040" y="732.5" font-family="DejaVu Sans,sans-serif" font-size="15" fill="#111827">Δ(PR−base) +30.66 MiB · effect -8.8%</text>
<text x="1040" y="752.5" font-family="DejaVu Sans,sans-serif" font-size="15" fill="#4b5563">95% CI [-21.0, +4.9] · N=5 SCREENING · inconclusive</text>
<text x="1040" y="772.5" font-family="DejaVu Sans,sans-serif" font-size="15" font-weight="bold" fill="#8a4b08">ORDER-CONFOUNDED (5/0 AB)</text>
<text x="24" y="814.5" font-family="DejaVu Sans,sans-serif" font-size="18" fill="#111827">RESP3 · workers=16</text>
<text x="24" y="838.5" font-family="DejaVu Sans,sans-serif" font-size="15" fill="#4b5563">Process PSS</text>
<line x1="669.6" y1="817.5" x2="731.8" y2="817.5" stroke="#9a6b16" stroke-width="4"/>
<line x1="669.6" y1="810.5" x2="669.6" y2="824.5" stroke="#9a6b16" stroke-width="3"/>
<line x1="731.8" y1="810.5" x2="731.8" y2="824.5" stroke="#9a6b16" stroke-width="3"/>
<circle cx="698.9" cy="817.5" r="7" fill="#9a6b16"/>
<text x="1040" y="807.5" font-family="DejaVu Sans,sans-serif" font-size="15" fill="#111827">Δ(PR−base) +30.57 MiB · effect -8.8%</text>
<text x="1040" y="827.5" font-family="DejaVu Sans,sans-serif" font-size="15" fill="#4b5563">95% CI [-21.0, +4.9] · N=5 SCREENING · inconclusive</text>
<text x="1040" y="847.5" font-family="DejaVu Sans,sans-serif" font-size="15" font-weight="bold" fill="#8a4b08">ORDER-CONFOUNDED (5/0 AB)</text>
<text x="24" y="947" font-family="DejaVu Sans,sans-serif" font-size="15" fill="#4b5563">Blue band: ±5% equivalence threshold. Arrowheads: CIs clipped at ±125%; annotations are exact.</text>
<text x="24" y="976" font-family="DejaVu Sans,sans-serif" font-size="15" font-weight="bold" fill="#8a4b08">ORDER NOTE: full workers=16 is screening-only: all 5 pairs were AB (baseline first; 5/0). Timeout workers=16 is order-skewed (4/1 AB/BA).</text>
</svg>
